<?xml version="1.0" encoding="utf-8"?>
<!-- Generator: Adobe Illustrator 19.1.0, SVG Export Plug-In . SVG Version: 6.00 Build 0)  -->
<svg version="1.1" id="图形" xmlns="http://www.w3.org/2000/svg" xmlns:xlink="http://www.w3.org/1999/xlink" x="0px" y="0px"
	 viewBox="15.167 -16.333 1000.636 1000.678" enable-background="new 15.167 -16.333 1000.636 1000.678" xml:space="preserve">
<g>
	<g>
		<polygon fill="#262535" points="581.238,219.631 626.903,33.31 394.661,33.31 442.103,219.631 		"/>
	</g>
	<g>
		<polygon fill="#262535" points="584.173,240.873 441.249,240.873 333.478,738.544 519.858,934.702 692.436,739.601 		"/>
	</g>
</g>
<g>
	<path fill="#272636" d="M345.999,796.648c-122.273-61.939-206.088-188.799-206.088-335.241
		c0-162.714,103.476-301.253,248.211-353.421l-12.4-50.489C208.369,115.397,88.187,274.364,88.187,461.407
		c0,204.128,143.139,374.819,334.519,417.191L345.999,796.648z"/>
</g>
<path fill="#272636" d="M297.818,740.839l121.5-512.5L374.841,57.041C207.947,115.286,88.187,274.28,88.187,461.295
	c0,206.198,145.588,378.331,339.42,418.917L297.818,740.839z"/>
<path fill="#272636" d="M650.101,55.754l-44.284,172.085l127,510.5L612.631,877.61c184.187-39.771,330.152-212.436,330.152-416.315
	C942.783,274.548,824.818,114.839,650.101,55.754z"/>
</svg>
