<?xml version="1.0" encoding="utf-8"?>
<!-- Generator: Adobe Illustrator 19.1.0, SVG Export Plug-In . SVG Version: 6.00 Build 0)  -->
<svg version="1.1" id="图形" xmlns="http://www.w3.org/2000/svg" xmlns:xlink="http://www.w3.org/1999/xlink" x="0px" y="0px"
	 viewBox="15.167 -16.333 1000.636 1000.678" enable-background="new 15.167 -16.333 1000.636 1000.678" xml:space="preserve">
<g>
	<path fill="#272636" d="M515.266,921.277c-241.266,0-437.534-196.268-437.534-437.533c0-241.262,196.293-437.53,437.534-437.53
		c241.236,0,437.529,196.268,437.529,437.53C952.794,725.009,756.526,921.277,515.266,921.277L515.266,921.277L515.266,921.277z
		 M515.266,108.716c-206.8,0-375.028,168.232-375.028,375.028c0,206.799,168.228,375.031,375.028,375.031
		c206.799,0,375.031-168.232,375.031-375.031C890.293,276.948,722.06,108.716,515.266,108.716L515.266,108.716L515.266,108.716z
		 M516.295,738.983c-87.104,0-167.886-39.381-221.612-108.038c-10.624-13.598-8.25-33.222,5.348-43.849
		c13.562-10.657,33.219-8.283,43.876,5.344c41.785,53.41,104.628,84.037,172.387,84.037c68.473,0,131.726-31.157,173.511-85.506
		c10.536-13.686,30.126-16.281,43.813-5.749c13.69,10.536,16.286,30.159,5.753,43.816
		C685.65,698.913,604.334,738.983,516.295,738.983L516.295,738.983L516.295,738.983z M375.657,486.873
		c-25.904,0-46.876-20.975-46.876-46.883v-62.502c0-25.912,20.972-46.88,46.876-46.88c25.908,0,46.88,20.967,46.88,46.88v62.502
		C422.537,465.872,401.536,486.873,375.657,486.873L375.657,486.873L375.657,486.873z M656.926,486.873
		c-25.879,0-46.875-20.975-46.875-46.883v-62.502c0-25.912,20.996-46.88,46.875-46.88c25.878,0,46.879,20.967,46.879,46.88v62.502
		C703.805,465.872,682.804,486.873,656.926,486.873L656.926,486.873L656.926,486.873z M656.926,486.873"/>
</g>
</svg>
