<?xml version="1.0" encoding="utf-8"?>
<!-- Generator: Adobe Illustrator 19.1.0, SVG Export Plug-In . SVG Version: 6.00 Build 0)  -->
<svg version="1.1" id="图形" xmlns="http://www.w3.org/2000/svg" xmlns:xlink="http://www.w3.org/1999/xlink" x="0px" y="0px"
	 viewBox="202 -80.788 1000.636 1000.678" enable-background="new 202 -80.788 1000.636 1000.678" xml:space="preserve">
<g>
	<path fill="#272636" d="M554.919,794.516c-9.857,0-18.634-4.045-24.719-11.403c-5.298-6.402-10.822-18.201-7.026-38.169
		l18.83-99.681c0.941-4.98,0.01-9.549-2.615-12.716c-2.52-3.043-6.377-4.737-11.152-4.737H339.246
		c-34.489,0-59.514-26.196-59.514-62.552V86.798c0-34.312,23.356-56.372,59.514-56.372h752.323
		c37.877,0,63.124,22.583,63.124,56.372v478.459c0,35.166-27.613,62.552-63.124,62.552H843.178
		c-18.758,0-49.412,9.948-65.609,21.163L583.467,784.174C573.606,791.012,564.017,794.516,554.919,794.516L554.919,794.516z
		 M339.246,71.657c-16.824,0-18.284,8.677-18.284,15.141v478.459c0,6.028,3.096,19.311,18.284,19.311h188.991
		c17.395,0,33.448,7.698,44.024,20.477c10.726,12.947,14.991,30.554,11.685,47.979l-17.113,90.664L753.21,613.61
		c23.221-16.114,62.734-29.043,89.967-29.043h248.392c11.767,0,21.892-7.884,21.892-19.311V86.798
		c0-3.418-1.252-15.141-21.892-15.141L339.246,71.657L339.246,71.657z"/>
</g>
</svg>
