<?xml version="1.0" encoding="utf-8"?>
<!-- Generator: Adobe Illustrator 19.1.0, SVG Export Plug-In . SVG Version: 6.00 Build 0)  -->
<svg version="1.1" id="图形" xmlns="http://www.w3.org/2000/svg" xmlns:xlink="http://www.w3.org/1999/xlink" x="0px" y="0px"
	 viewBox="202 -80.788 1000.636 1000.678" enable-background="new 202 -80.788 1000.636 1000.678" xml:space="preserve">
<g>
	<g>
		<path fill="#272636" d="M777.916-7.478L751.858,98.843h-76.664L648.122-7.478H777.916 M828.903-47.478H596.661l47.441,186.321
			h139.135L828.903-47.478L828.903-47.478z"/>
	</g>
	<g>
		<path fill="#272636" d="M753.924,200.085l97.123,447.406L720.804,794.733L579.05,645.542l96.464-445.457L753.924,200.085
			 M786.173,160.085H643.248l-107.77,497.671l186.38,196.158l172.578-195.101L786.173,160.085L786.173,160.085z"/>
	</g>
</g>
<g>
	<path fill="#272636" d="M547.999,715.86c-122.273-61.939-206.088-188.799-206.088-335.241
		c0-162.714,103.476-301.253,248.211-353.421l-12.4-50.489c-167.353,57.9-287.535,216.867-287.535,403.91
		c0,204.128,143.139,374.819,334.519,417.191L547.999,715.86z"/>
	<path fill="#272636" d="M852.101-25.034l-16.707,50.182c147.866,46.502,257.665,190.841,257.665,355.47
		c0,146.827-84.258,273.97-207.056,335.729l-71.372,80.474c189.187-43.984,330.152-213.63,330.152-416.203
		C1144.783,191.664,1022.131,31.363,852.101-25.034z"/>
</g>
</svg>
