<?xml version="1.0" encoding="utf-8"?>
<!-- Generator: Adobe Illustrator 19.1.0, SVG Export Plug-In . SVG Version: 6.00 Build 0)  -->
<svg version="1.1" id="图形" xmlns="http://www.w3.org/2000/svg" xmlns:xlink="http://www.w3.org/1999/xlink" x="0px" y="0px"
	 viewBox="202 -80.788 1000.636 1000.678" enable-background="new 202 -80.788 1000.636 1000.678" xml:space="preserve">
<g>
	<path fill="#262535" d="M865.422,595.624c-16.641-12.461-35.932-19.457-56.139-25.18c-52.092-14.299-111.156-18.018-152.419-75.511
		c0,0-21.115-25.123,26.581-86.535c47.995-61.635,51.938-159.313,39.876-234.823C711.423,98.092,643.678,47.705,573.229,47.705
		c-70.26,0-138.078,50.387-149.977,125.871c-12.061,75.51-8.149,173.183,39.871,234.823c47.697,61.411,26.557,86.535,26.557,86.535
		c-40.975,56.985-99.55,61.133-151.374,75.113c-20.579,5.728-40.249,12.891-57.184,25.577
		c-60.051,44.722-45.26,146.679-45.26,146.679h6.642h273.011h57.715h59.302h272.737h5.365
		C910.633,742.303,925.394,640.346,865.422,595.624L865.422,595.624L865.422,595.624z"/>
</g>
<g>
	<path fill="#262535" d="M1126.959,626.6c-48.612-35.265-123.552-16.502-170.078-79.448c0,0-17.386-19.86,21.604-68.279
		c39.061-48.688,42.307-125.712,32.465-185.467c-9.731-59.363-64.829-99.144-122.524-99.144
		c-57.285,0-112.513,39.782-122.409,99.144c-9.626,59.755-6.219,136.778,32.766,185.467c19.523,24.374,24.895,41.6,25.467,52.543
		c17.843,6.054,36.171,14.196,52.955,26.522c73.622,53.202,69.453,155.644,66.83,184.365h219.822
		C1163.857,742.303,1175.861,661.84,1126.959,626.6L1126.959,626.6L1126.959,626.6z"/>
</g>
</svg>
