<?xml version="1.0" encoding="utf-8"?>
<!-- Generator: Adobe Illustrator 19.1.0, SVG Export Plug-In . SVG Version: 6.00 Build 0)  -->
<svg version="1.1" id="图形" xmlns="http://www.w3.org/2000/svg" xmlns:xlink="http://www.w3.org/1999/xlink" x="0px" y="0px"
	 viewBox="202 -80.788 1000.636 1000.678" enable-background="new 202 -80.788 1000.636 1000.678" xml:space="preserve">
<g enable-background="new    ">
	<path fill="#272636" d="M490.902,126.743l-5.105,19.417c-13.62,1.325-24.215,4.755-31.793,10.302
		c-7.586,5.548-12.923,13.274-16.013,23.181c-3.097,9.906-4.641,23.181-4.641,39.823c0,5.288,0.152,10.835,0.464,16.643
		l13.924,309.078v31.7h4.642l200.973-309.475c11.756-18.228,20.574-33.879,26.457-46.956c5.873-13.076,8.818-24.629,8.818-34.672
		c0-10.563-3.641-19.218-10.908-25.955c-7.273-6.736-19.109-11.293-35.506-13.67l5.105-19.417h189.834l-5.105,19.417
		c-8.355,1.059-16.324,3.764-23.904,8.123c-7.586,4.359-16.092,11.627-25.527,21.794c-9.441,10.172-24.063,29.787-43.861,58.844
		l-297.05,439.049h-61.731l-31.097-441.823c-1.24-17.169-3.481-31.898-6.73-44.182c-3.249-12.284-8.354-21.856-15.316-28.729
		c-6.962-6.866-18.029-11.225-33.186-13.076l5.105-19.417H490.902z"/>
</g>
<g enable-background="new    ">
	<path fill="#272636" d="M591.281,657.809c66.53-12.441,109.35-32.184,128.462-59.229H595.608v-20.013H729.75
		c6.129-18.75,8.925-51.475,8.384-98.173h22.718c0,46.338-2.525,79.062-7.573,98.173h102.5v20.013H745.706
		c-1.443,2.887-3.156,5.95-5.139,9.195c38.583,16.227,76.355,32.994,113.317,50.304l-11.899,20.554
		c-38.585-19.654-76.719-37.954-114.399-54.901c-24.521,23.979-65.63,42.461-123.324,55.442
		C600.115,671.24,595.788,664.118,591.281,657.809z M600.746,449.293h123.865c-4.509-8.113-10.548-17.579-18.12-28.396
		l19.742-11.089c5.95,7.934,13.161,18.391,21.636,31.372l-14.874,8.113h115.751v48.41H827.11v-28.396H622.382v28.396h-21.636
		V449.293z M634.011,522.314c20.734,9.377,40.206,19.202,58.417,29.479l-11.629,18.66c-18.031-10.997-37.051-21.274-57.064-30.83
		L634.011,522.314z M658.352,480.936c20.913,10.098,39.936,20.283,57.064,30.561l-12.17,18.391
		c-16.768-10.818-35.249-21.815-55.442-32.995L658.352,480.936z"/>
	<path fill="#272636" d="M879.037,604.531c71.938-21.815,134.321-42.279,187.149-61.392c-0.541,12.081-0.541,19.924,0,23.528
		c-62.744,21.096-122.333,41.47-178.766,61.121L879.037,604.531z M884.986,432.796h226.095
		c-1.805,85.103-3.517,143.066-5.139,173.897c-1.623,40.386-22.177,60.58-61.662,60.58c-15.507,0-32.365-0.361-50.574-1.081
		c-0.723-7.032-2.163-15.416-4.327-25.152c23.077,1.623,40.386,2.435,51.926,2.435c14.964,0.18,25.603-2.975,31.913-9.466
		c5.95-6.491,9.284-17.488,10.007-32.994c1.802-43.272,3.063-91.953,3.786-146.042H884.986V432.796z M912.302,494.729l11.629-17.579
		c37.863,16.588,69.053,31.192,93.575,43.813l-12.44,20.554C970.267,522.584,939.347,506.99,912.302,494.729z"/>
</g>
</svg>
