<?xml version="1.0" encoding="utf-8"?>
<!-- Generator: Adobe Illustrator 19.1.0, SVG Export Plug-In . SVG Version: 6.00 Build 0)  -->
<svg version="1.1" id="图形" xmlns="http://www.w3.org/2000/svg" xmlns:xlink="http://www.w3.org/1999/xlink" x="0px" y="0px"
	 viewBox="15.167 -16.333 1000.636 1000.678" enable-background="new 15.167 -16.333 1000.636 1000.678" xml:space="preserve">
<g>
	<path fill="#272636" d="M870.904,101.209H160.066c-45.322,0-82.062,36.74-82.062,82.062V784.74
		c0,45.321,36.739,82.062,82.062,82.062h710.837c45.322,0,82.062-36.74,82.062-82.062V183.271
		C952.965,137.949,916.226,101.209,870.904,101.209L870.904,101.209z M160.045,155.893h710.884c15.107,0,27.352,12.25,27.352,27.353
		V505.29c-44.062-36.155-120.454-84.903-212.095-84.903c-84.495,0-167.8,65.474-248.352,128.794
		c-61.723,48.51-125.552,98.68-170.336,98.68c-62.816,0-116.586-46.178-134.811-63.797V183.247
		C132.688,168.143,144.938,155.893,160.045,155.893L160.045,155.893z M870.929,812.118H160.045
		c-15.107,0-27.357-12.25-27.357-27.353V654.962c32.789,23.23,80.201,47.608,134.811,47.608
		c63.708,0,131.924-53.612,204.139-110.379c73.25-57.567,148.979-117.095,214.548-117.095
		c117.525,0,210.739,103.456,211.661,104.499l0.434-0.383v205.549C898.281,799.869,886.036,812.118,870.929,812.118L870.929,812.118
		z M870.929,812.118"/>
	<path fill="#272636" d="M351.15,484.304c60.488,0,109.519-49.035,109.519-109.519c0-60.488-49.031-109.519-109.519-109.519
		c-60.484,0-109.519,49.031-109.519,109.519C241.631,435.269,290.666,484.304,351.15,484.304L351.15,484.304z M351.559,319.951
		c30.114,0,54.526,24.411,54.526,54.529c0,30.115-24.412,54.526-54.526,54.526c-30.118,0-54.53-24.411-54.53-54.526
		C297.029,344.366,321.445,319.951,351.559,319.951L351.559,319.951z M351.559,319.951"/>
</g>
</svg>
