<?xml version="1.0" encoding="utf-8"?>
<!-- Generator: Adobe Illustrator 19.1.0, SVG Export Plug-In . SVG Version: 6.00 Build 0)  -->
<svg version="1.1" id="图形" xmlns="http://www.w3.org/2000/svg" xmlns:xlink="http://www.w3.org/1999/xlink" x="0px" y="0px"
	 viewBox="202 -80.788 1000.636 1000.678" enable-background="new 202 -80.788 1000.636 1000.678" xml:space="preserve">
<g>
	<path fill="#272636" d="M339.246,89.174h23.988c1.606-0.181,3.237-0.279,4.89-0.279h663.058l6.696-0.055l25.719,0.469
		l-0.183,40.949l-0.15,17.718l0.667,375l-0.021,13.271l-0.063,31.75l-27.162-0.315l-5.503,0.362h-53.995h-41.663h-31.036
		c-21.333,0-38.626,17.043-38.626,38.063c0,21.024,17.293,38.067,38.626,38.067h31.036h41.663h74.489
		c47.192,0,85.445-37.7,85.445-84.209V105.234c0-46.508-38.254-84.209-85.445-84.209l0,0h-704.07
		c-47.192,0-85.446,37.702-85.446,84.209v454.729c0,46.509,38.254,84.209,85.446,84.209h315.757v-76.129h-280.01l-43.938,0.365"/>
	<path fill="#272636" d="M897.037,843.544c15.082-14.864,15.082-38.963,0-53.831l-208.12-210.158
		c-15.082-14.864-39.539-14.864-54.621,0l0,0c-15.086,14.865-15.086,38.968,0,53.832L842.41,843.544
		C857.497,858.413,881.951,858.413,897.037,843.544L897.037,843.544L897.037,843.544z"/>
</g>
<ellipse fill="#272636" cx="496.236" cy="317.161" rx="59.1" ry="58.245"/>
<ellipse fill="#272636" cx="696.641" cy="317.161" rx="59.1" ry="58.245"/>
<ellipse fill="#272636" cx="897.046" cy="317.161" rx="59.1" ry="58.245"/>
</svg>
