<?xml version="1.0" encoding="utf-8"?>
<!-- Generator: Adobe Illustrator 19.1.0, SVG Export Plug-In . SVG Version: 6.00 Build 0)  -->
<svg version="1.1" id="图形" xmlns="http://www.w3.org/2000/svg" xmlns:xlink="http://www.w3.org/1999/xlink" x="0px" y="0px"
	 viewBox="202 -80.788 1000.636 1000.678" enable-background="new 202 -80.788 1000.636 1000.678" xml:space="preserve">
<g enable-background="new    ">
	<path fill="#272636" d="M424.951,203.954l-4.059,15.438c-10.829,1.053-19.253,3.78-25.278,8.191
		c-6.031,4.411-10.275,10.555-12.731,18.431c-2.462,7.876-3.69,18.431-3.69,31.663c0,4.204,0.121,8.615,0.369,13.232l11.071,245.74
		v25.204h3.69L554.11,315.797c9.347-14.492,16.358-26.937,21.035-37.333c4.67-10.396,7.011-19.582,7.011-27.567
		c0-8.398-2.895-15.28-8.672-20.636c-5.783-5.356-15.193-8.979-28.23-10.869l4.059-15.438h150.932l-4.06,15.438
		c-6.643,0.842-12.979,2.993-19.005,6.458c-6.031,3.465-12.795,9.245-20.296,17.328c-7.507,8.088-19.132,23.683-34.873,46.785
		L385.834,639.04h-49.081l-24.725-351.282c-0.986-13.65-2.768-25.361-5.351-35.128c-2.583-9.767-6.643-17.377-12.178-22.841
		c-5.536-5.459-14.334-8.925-26.385-10.396l4.059-15.438H424.951z"/>
</g>
<g enable-background="new    ">
	<path fill="#272636" d="M628.183,432.452l-5.161,6.235c23.938,31.108,55.691,54.546,95.256,70.313
		c-4.444,6.309-8.243,12.042-11.396,17.202c-11.611-5.591-22.649-11.896-33.113-18.922v12.256h-125.79v-10.751
		c-10.466,6.881-21.647,13.619-33.544,20.213c-2.867-4.874-6.451-10.249-10.751-16.127c44.295-22.219,77.767-49.026,100.417-80.42
		H628.183z M536.152,546.845h149.873v95.472h-17.202V627.91H553.354v14.837h-17.202V546.845z M668.823,562.542H553.354v50.101
		h115.469V562.542z M611.626,451.159c-14.622,18.779-33.759,36.484-57.412,53.111h115.039
		C647.463,489.363,628.253,471.659,611.626,451.159z"/>
	<path fill="#272636" d="M723.869,535.879c22.936-31.395,40.281-67.017,52.036-106.868l17.633,5.161
		c-6.451,18.062-13.262,34.834-20.428,50.315v156.108h-16.771v-123.64c-8.028,14.049-16.415,26.663-25.158,37.845
		C729.173,548.495,726.735,542.187,723.869,535.879z M849.015,429.657h17.417c0,31.823-0.61,56.193-1.828,73.108
		c7.669,53.9,32.217,94.11,73.646,120.629c-5.735,6.164-10.608,11.611-14.622,16.343c-33.113-25.733-54.761-57.913-64.938-96.547
		c-8.458,37.63-31.896,70.456-70.313,98.481c-3.44-4.588-7.383-9.676-11.826-15.267c28.526-21.788,47.376-42.36,56.552-61.712
		c10.034-19.353,15.122-46.589,15.267-81.71C848.8,466.498,849.015,448.723,849.015,429.657z M783.861,485.348l14.407-8.816
		c10.751,17.776,20.857,34.979,30.318,51.606l-15.696,9.891C802.999,518.822,793.323,501.26,783.861,485.348z M879.548,527.493
		c13.617-17.487,26.304-35.191,38.06-53.111l14.837,10.967c-12.616,17.632-26.018,35.121-40.21,52.466L879.548,527.493z"/>
	<path fill="#272636" d="M944.7,622.964c62.5-36.124,95.542-99.484,99.127-190.083h18.922c-0.789,15.34-2.295,29.961-4.516,43.865
		c17.775,71.676,51.177,118.839,100.202,141.487c-6.021,6.594-11.326,12.829-15.912,18.707
		c-42.575-24.083-72.931-66.693-91.063-127.833c-15.696,59.062-46.768,102.46-93.213,130.198
		C954.376,634.001,949.86,628.555,944.7,622.964z"/>
</g>
</svg>
