<?xml version="1.0" encoding="utf-8"?>
<!-- Generator: Adobe Illustrator 19.1.0, SVG Export Plug-In . SVG Version: 6.00 Build 0)  -->
<svg version="1.1" id="图形" xmlns="http://www.w3.org/2000/svg" xmlns:xlink="http://www.w3.org/1999/xlink" x="0px" y="0px"
	 viewBox="202 -80.788 1000.636 1000.678" enable-background="new 202 -80.788 1000.636 1000.678" xml:space="preserve">
<g enable-background="new    ">
	<path fill="#272636" d="M681.078,127.068l-5.375,20.422c-14.328,1.406-25.484,5.016-33.453,10.859s-13.594,13.969-16.844,24.391
		s-4.875,24.391-4.875,41.891c0,5.563,0.156,11.406,0.484,17.516l14.656,325.266v33.359h4.875l211.422-325.672
		c12.375-19.188,21.641-35.656,27.828-49.422c6.188-13.75,9.281-25.922,9.281-36.484c0-11.125-3.828-20.219-11.469-27.313
		c-7.656-7.094-20.109-11.891-37.359-14.391l5.375-20.422h199.703l-5.359,20.422c-8.797,1.125-17.188,3.969-25.156,8.563
		s-16.922,12.234-26.859,22.938s-25.313,31.344-46.141,61.906l-312.5,462.031h-64.938l-32.719-464.953
		c-1.313-18.063-3.672-33.547-7.078-46.484c-3.422-12.922-8.797-23-16.109-30.234c-7.328-7.219-18.968-11.813-34.906-13.766
		l5.359-20.422H681.078z"/>
</g>
</svg>
