<?xml version="1.0" encoding="utf-8"?>
<!-- Generator: Adobe Illustrator 19.1.0, SVG Export Plug-In . SVG Version: 6.00 Build 0)  -->
<svg version="1.1" id="图形" xmlns="http://www.w3.org/2000/svg" xmlns:xlink="http://www.w3.org/1999/xlink" x="0px" y="0px"
	 viewBox="202 -80.788 1000.636 1000.678" enable-background="new 202 -80.788 1000.636 1000.678" xml:space="preserve">
<g>
	<path fill="#262535" d="M573.229,77.705c28.108,0,55.856,9.927,78.132,27.951c11.165,9.034,20.455,19.715,27.612,31.746
		c7.47,12.557,12.42,26.299,14.712,40.845l0.005,0.031l0.005,0.031c4.37,27.359,8.346,69.339,2.465,113.963
		c-5.365,40.71-17.607,73.58-36.41,97.726c-56.395,72.611-34.661,112.575-26.993,122.8c40.632,56.327,96.824,69.459,141.994,80.015
		c9.251,2.162,17.993,4.205,26.467,6.528c15.991,4.533,32.65,10.135,46.22,20.297l0.024,0.018l0.024,0.018
		c9.361,6.98,16.973,16.852,22.624,29.339c5.021,11.096,8.542,24.24,10.464,39.069c1.129,8.71,1.568,16.992,1.644,24.221H632.531
		h-59.302h-57.715H264.27c0.076-7.228,0.514-15.51,1.644-24.22c1.923-14.825,5.446-27.966,10.472-39.059
		c5.658-12.487,13.28-22.358,22.654-29.339l0.034-0.025l0.034-0.025c14.066-10.537,31.697-16.354,47.111-20.65
		c8.117-2.187,16.461-4.132,25.292-6.19c45.26-10.547,101.567-23.672,142.26-79.979c7.675-10.22,29.455-50.189-26.982-122.853
		c-18.785-24.114-31.028-56.981-36.389-97.69c-5.874-44.607-1.896-86.595,2.476-113.964l0.005-0.03l0.005-0.031
		c2.292-14.541,7.244-28.281,14.719-40.84c7.16-12.031,16.454-22.714,27.622-31.753C517.499,87.631,545.2,77.705,573.229,77.705
		 M573.229,47.705c-70.26,0-138.078,50.387-149.977,125.871c-12.061,75.51-8.149,173.183,39.871,234.823
		c47.697,61.411,26.556,86.535,26.556,86.535c-40.975,56.985-99.55,61.133-151.374,75.113
		c-20.579,5.728-40.249,12.891-57.184,25.577c-60.051,44.722-45.26,146.679-45.26,146.679h6.642h273.011h57.715h59.302h272.737
		h5.365c0,0,14.761-101.957-45.211-146.679c-16.641-12.461-35.932-19.457-56.139-25.18c-52.092-14.299-111.156-18.018-152.419-75.51
		c0,0-21.115-25.123,26.581-86.535c47.995-61.635,51.938-159.313,39.876-234.823C711.423,98.092,643.679,47.705,573.229,47.705
		L573.229,47.705z"/>
</g>
<g>
	<path fill="#262535" d="M888.427,224.262c21.919,0,43.5,7.437,60.766,20.942c12.274,9.6,27.816,26.598,32.157,53.078
		c3.485,21.157,6.657,53.593,1.981,87.964c-4.199,30.865-13.694,55.703-28.221,73.825c-48.702,60.488-29.517,95.543-22.154,105.182
		c34.3,46.198,81.269,56.809,119.021,65.334c22.898,5.171,42.673,9.637,57.367,20.296l0.038,0.028l0.038,0.028
		c13.004,9.371,21.212,25.929,24.395,49.215c0.577,4.22,0.93,8.312,1.128,12.149H975.056
		c-0.827-49.345-13.404-130.286-80.193-178.617c-13.016-9.545-27.714-17.65-44.594-24.568c-4.915-15.409-14.303-31.81-28.068-48.995
		c-14.526-18.141-24.051-43.014-28.311-73.928c-4.731-34.333-1.675-66.749,1.731-87.927c4.43-26.433,20.013-43.444,32.312-53.063
		C845.201,231.7,866.685,224.262,888.427,224.262 M888.427,194.262c-57.285,0-112.513,39.782-122.409,99.144
		c-9.626,59.755-6.219,136.778,32.766,185.467c19.523,24.373,24.895,41.599,25.467,52.543c17.843,6.054,36.171,14.196,52.955,26.522
		c73.622,53.201,69.453,155.644,66.83,184.365h219.822c0,0,12.004-80.463-36.898-115.703
		c-48.612-35.265-123.552-16.502-170.078-79.448c0,0-17.386-19.86,21.604-68.279c39.061-48.688,42.307-125.712,32.465-185.467
		C1001.22,234.044,946.121,194.262,888.427,194.262L888.427,194.262z"/>
</g>
</svg>
