<?xml version="1.0" encoding="utf-8"?>
<!-- Generator: Adobe Illustrator 19.1.0, SVG Export Plug-In . SVG Version: 6.00 Build 0)  -->
<svg version="1.1" id="图形" xmlns="http://www.w3.org/2000/svg" xmlns:xlink="http://www.w3.org/1999/xlink" x="0px" y="0px"
	 viewBox="15.167 -16.333 1000.636 1000.678" enable-background="new 15.167 -16.333 1000.636 1000.678" xml:space="preserve">
<g>
	<path fill="#272636" d="M952.321,185.695v-42.254c0-46.563-34.743-84.298-81.255-84.497L156.228,59.28
		c-43.586,1.916-78.04,23.372-78.224,67.664l0.356,523.379c2,44.914,38.74,80.815,84.142,80.815h44.9v0.269l164.064-0.269
		c23.338,0,42.277-7.885,42.277-31.225c0-23.325-18.92-35.497-42.277-35.497l-179.807,0.284
		c-31.628-1.982-42.59-9.232-46.327-34.757l-0.318-468.882c4.391-24.429,16.146-31.727,47.015-33.827l693.451-0.323v0.891
		l-55.018-0.369c40.001,0.91,51.638,6.525,55.005,39.939l-0.456,456.82c-2.475,33.245-12.276,39.684-48.36,40.931l-297.735,0.284
		c-1.077,0-2.087,0.171-3.144,0.238c-3.817-0.1-7.62,0.535-11.385,1.816c-1.361,0.384-2.622,0.906-3.883,1.413l-0.118,0.052
		c-5.785,2.385-10.646,5.884-14.173,10.607L336.378,848.06c-16.497,16.477-22.79,42.372-6.293,58.854
		c16.516,16.511,43.269,9.332,59.779-7.164L559.4,731.526l311.367-0.384c46.697,0,81.624-37.868,81.624-84.531v-42.277l0.152-0.015
		l0.423-418.639h-0.64L952.321,185.695z M884.94,665.071l-22.718,0.015l22.718-0.152v0.132V665.071z M830.443,127.433
		c-8.194-0.186-17.473-0.186-28.218-0.186L830.443,127.433L830.443,127.433z M279.651,396.105c0,27.862,22.586,50.447,50.448,50.447
		s50.447-22.584,50.447-50.447c0-27.862-22.584-50.448-50.447-50.448S279.651,368.224,279.651,396.105L279.651,396.105z
		 M565.499,396.105c0-27.862-22.6-50.448-50.448-50.448c-27.862,0-50.448,22.586-50.448,50.448
		c0,27.862,22.586,50.447,50.448,50.447C542.913,446.552,565.499,423.953,565.499,396.105L565.499,396.105z M750.47,396.105
		c0-27.862-22.605-50.448-50.448-50.448c-27.848,0-50.448,22.586-50.448,50.448c0,27.862,22.6,50.447,50.448,50.447
		C727.865,446.552,750.47,423.953,750.47,396.105L750.47,396.105z M750.47,396.105"/>
</g>
</svg>
