<?xml version="1.0" encoding="utf-8"?>
<!-- Generator: Adobe Illustrator 19.1.0, SVG Export Plug-In . SVG Version: 6.00 Build 0)  -->
<svg version="1.1" id="图形" xmlns="http://www.w3.org/2000/svg" xmlns:xlink="http://www.w3.org/1999/xlink" x="0px" y="0px"
	 viewBox="202 -80.788 1000.636 1000.678" enable-background="new 202 -80.788 1000.636 1000.678" xml:space="preserve">
<g>
	<path fill="#272636" d="M1152.791,392.628c0.328,4.19,0.029,8.492-1.066,12.786l-78.652,361.392
		c-1.102,4.326-2.922,8.259-5.231,11.751c-8.425,17.512-21.235,32.999-38.269,44.271c-17.936,11.872-37.976,17.408-57.765,17.374
		v-0.228l-505.21-0.22c-1.772,0.278-3.557,0.457-5.398,0.457c-1.845,0-3.637-0.183-5.419-0.465L321.4,839.691
		c-1.889,0.312-3.81,0.519-5.787,0.519c-20.1,0-36.399-16.958-36.399-37.882l0.331-454.886c0-20.924,16.3-37.882,36.404-37.882
		c1.501,0,2.975,0.12,4.431,0.312l120.794-0.299v-0.707c111.144-8.285,199.212-103.133,202.358-220.152
		c-0.287-3.284-0.487-6.6-0.487-9.967c0-60.873,47.407-110.228,105.896-110.228c50.259,0,92.241,36.482,103.086,85.364l0.535-0.076
		c5.966,27.908,9.212,56.875,9.212,86.648c0,45.901-7.53,89.956-21.302,130.956l203.164,0.229c1.873,0,3.693,0.2,5.494,0.482
		c34.687,1.422,68.095,20.01,87.776,53.034C1149.433,346.155,1154.42,369.746,1152.791,392.628 M352.045,763.925l72.795,0.033
		l0.271-378.566l-72.731,0.17L352.045,763.925L352.045,763.925L352.045,763.925L352.045,763.925L352.045,763.925z M1075.468,364.746
		c-6.992-11.746-19.35-17.915-31.74-17.217v-0.116h-0.092l-256.805-0.283c-20.096,0-36.392-16.971-36.392-37.895
		c0-6.018,1.386-11.705,3.793-16.759l-0.387-0.332c14.539-28.178,25.119-58.899,31.113-91.303l0.455,0.017
		c0,0,4.839-20.463,4.78-59.71c-0.048-31.083-5.494-59.463-5.494-59.463h-0.276c0.025-0.549,0.084-1.09,0.084-1.65
		c0-19.569-15.241-35.431-34.043-35.431c-18.791,0-34.036,15.861-34.036,35.431c0,0.818,0.072,1.625,0.12,2.431l-0.475,0.004
		c0,0,0.579,29.582-5.095,60.262c-2.412,13.009-5.794,25.151-8.877,34.766c-0.063-0.038-0.116-0.063-0.18-0.091
		c-30.634,97.499-107.665,173.079-203.942,198.542l-0.348,388.038l474.344,0.2c1.605,0,3.174,0.141,4.715,0.366
		c4.736-0.661,9.407-2.365,13.707-5.209c6.097-4.032,10.521-9.76,13.117-16.21l0.096,0.054l75.726-347.942l-0.287-0.092
		C1082.073,385.313,1081.118,374.211,1075.468,364.746"/>
</g>
</svg>
