<?xml version="1.0" encoding="utf-8"?>
<!-- Generator: Adobe Illustrator 19.1.0, SVG Export Plug-In . SVG Version: 6.00 Build 0)  -->
<svg version="1.1" id="图形" xmlns="http://www.w3.org/2000/svg" xmlns:xlink="http://www.w3.org/1999/xlink" x="0px" y="0px"
	 viewBox="15.167 -16.333 1000.636 1000.678" enable-background="new 15.167 -16.333 1000.636 1000.678" xml:space="preserve">
<g>
	<path fill="#262535" d="M515.464,99.451c36.086,0,71.634,12.054,100.098,33.941c14.094,10.838,25.796,23.612,34.782,37.968
		c9.282,14.829,15.428,31.026,18.267,48.143l0.007,0.043l0.007,0.043c5.549,33.009,10.598,83.643,3.141,137.412
		c-6.766,48.789-22.177,88.15-45.806,116.988l-0.016,0.02l-0.016,0.02c-30.891,37.8-47.371,72.826-48.983,104.108
		c-1.405,27.27,8.8,44.205,14.066,51.033c52.591,69.499,121.951,84.906,183.15,98.498c11.877,2.638,23.097,5.13,33.977,7.964
		c19.508,5.256,41.763,12.297,59.097,24.633l0.032,0.023l0.032,0.023c22.059,15.633,35.883,42.746,41.089,80.587
		c1.253,9.107,1.838,17.831,2.034,25.662H591.565h-76.101H441.4H120.538c0.185-7.304,0.711-15.396,1.804-23.874
		c2.307-17.894,6.648-33.733,12.901-47.076c7.14-15.235,16.454-26.777,28.474-35.284l0.045-0.032l0.045-0.032
		c17.933-12.767,40.513-19.839,60.261-25.069c10.414-2.666,21.117-5.037,32.446-7.546c61.324-13.581,130.819-28.967,183.491-98.45
		c5.269-6.821,15.496-23.756,14.103-51.04c-1.597-31.289-18.073-66.322-48.969-104.127l-0.019-0.023l-0.019-0.023
		c-23.636-28.835-39.049-68.192-45.809-116.98c-7.448-53.749-2.395-104.394,3.155-137.415l0.007-0.042l0.007-0.043
		c2.838-17.11,8.986-33.306,18.275-48.137c8.991-14.357,20.698-27.134,34.796-37.977C443.991,111.505,479.48,99.451,515.464,99.451
		 M515.464,59.451c-90.163,0-177.193,61.451-192.462,153.508c-15.478,92.09-10.457,211.208,51.165,286.383
		c61.209,74.895,34.08,105.535,34.08,105.535c-52.583,69.497-127.751,74.555-194.255,91.605
		c-26.409,6.986-51.65,15.722-73.383,31.193C63.547,782.217,82.528,906.56,82.528,906.56h8.523H441.4h74.064h76.101h349.997h6.885
		c0,0,18.943-124.344-58.019-178.885c-21.355-15.197-46.111-23.729-72.042-30.708c-66.849-17.438-142.644-21.974-195.596-92.09
		c0,0-27.097-30.64,34.111-105.535c61.591-75.168,66.651-194.293,51.171-286.383C692.805,120.902,605.87,59.451,515.464,59.451
		L515.464,59.451z"/>
</g>
</svg>
