<?xml version="1.0" encoding="utf-8"?>
<!-- Generator: Adobe Illustrator 19.1.0, SVG Export Plug-In . SVG Version: 6.00 Build 0)  -->
<svg version="1.1" id="图形" xmlns="http://www.w3.org/2000/svg" xmlns:xlink="http://www.w3.org/1999/xlink" x="0px" y="0px"
	 viewBox="15.167 -16.333 1000.636 1000.678" enable-background="new 15.167 -16.333 1000.636 1000.678" xml:space="preserve">
<g>
	<path fill="#262535" d="M890.429,728.675c-21.355-15.197-46.111-23.729-72.042-30.708c-66.849-17.438-142.644-21.974-195.596-92.09
		c0,0-27.097-30.64,34.111-105.535c61.591-75.168,66.651-194.293,51.172-286.383C692.805,121.902,605.87,60.452,515.464,60.452
		c-90.163,0-177.193,61.45-192.462,153.508c-15.478,92.09-10.457,211.208,51.165,286.383c61.209,74.895,34.08,105.535,34.08,105.535
		c-52.583,69.497-127.751,74.555-194.255,91.605c-26.409,6.986-51.65,15.722-73.383,31.193
		C63.547,783.217,82.528,907.56,82.528,907.56h8.523H441.4h74.064h76.101h349.998h6.885
		C948.448,907.56,967.39,783.217,890.429,728.675L890.429,728.675L890.429,728.675z"/>
</g>
</svg>
