<?xml version="1.0" encoding="utf-8"?>
<!-- Generator: Adobe Illustrator 19.1.0, SVG Export Plug-In . SVG Version: 6.00 Build 0)  -->
<svg version="1.1" id="图形" xmlns="http://www.w3.org/2000/svg" xmlns:xlink="http://www.w3.org/1999/xlink" x="0px" y="0px"
	 viewBox="202 -80.788 1000.636 1000.678" enable-background="new 202 -80.788 1000.636 1000.678" xml:space="preserve">
<g>
	<path fill="#272636" d="M425.629,307.84L425.629,307.84l-104.731,0.26c-1.457-0.192-2.931-0.313-4.431-0.313
		c-20.105,0-36.404,17.024-36.404,38.029l-0.331,456.647c0,21.005,16.299,38.029,36.399,38.029c1.977,0,3.898-0.208,5.787-0.521
		l103.711,0.042V307.84z"/>
	<path fill="#272636" d="M1137.425,323.443c-19.681-33.152-53.089-51.812-87.776-53.239c-1.801-0.283-3.622-0.484-5.494-0.484
		l-203.164-0.23c13.772-41.159,21.302-85.384,21.302-131.463c0-29.888-3.247-58.968-9.212-86.983l-0.535,0.076
		C841.702,2.049,799.719-34.574,749.46-34.574c-58.489,0-105.896,49.546-105.896,110.655c0,3.38,0.199,6.709,0.487,10.006
		c-2.59,96.691-62.734,178.252-145.901,208.74v545.221l474.177,0.208v0.229c19.788,0.034,39.828-5.524,57.765-17.441
		c17.034-11.315,29.844-26.863,38.269-44.442c2.308-3.505,4.129-7.453,5.231-11.796l78.652-362.791
		c1.095-4.31,1.394-8.629,1.066-12.835C1154.938,368.207,1149.951,344.524,1137.425,323.443z"/>
</g>
</svg>
