<?xml version="1.0" encoding="utf-8"?>
<!-- Generator: Adobe Illustrator 19.1.0, SVG Export Plug-In . SVG Version: 6.00 Build 0)  -->
<svg version="1.1" id="图形" xmlns="http://www.w3.org/2000/svg" xmlns:xlink="http://www.w3.org/1999/xlink" x="0px" y="0px"
	 viewBox="15.167 -16.333 1000.636 1000.678" enable-background="new 15.167 -16.333 1000.636 1000.678" xml:space="preserve">
<g>
	<path fill="#272636" d="M908.174,531.47c-24.159,0-43.701,19.585-43.701,43.701v223.694c0,19.327-15.688,35.015-34.968,35.015
		H200.101c-19.284,0-34.935-15.688-34.935-35.015V169.508c0-19.284,15.65-34.976,34.935-34.976h196.668
		c24.159,0,43.701-19.58,43.701-43.692c0-24.12-19.542-43.701-43.701-43.701H200.101c-67.469,0-122.37,54.901-122.37,122.37v629.361
		c0,67.507,54.901,122.407,122.37,122.407H829.5c67.464,0,122.412-54.901,122.412-122.407V575.171
		C951.913,551.054,932.328,531.47,908.174,531.47L908.174,531.47z M908.174,531.47"/>
	<path fill="#272636" d="M465.569,671.84c1.321,0.125,2.647,0.172,3.973,0.172c22.365,0,41.431-17.057,43.486-39.804
		c2.432-27.064,14.277-107.659,39.375-154.69c34.462-64.392,98.554-184.281,270.129-206.857c2.948-0.425,5.433-1.874,8.167-2.819
		l-73.451,153.751c-10.436,21.759-1.202,47.883,20.606,58.234c6.072,2.905,12.445,4.274,18.769,4.274
		c16.337,0,31.982-9.148,39.466-24.841l113.039-236.61c5.008-10.469,5.647-22.485,1.755-33.394
		c-3.844-10.947-11.924-19.875-22.36-24.884L691.915,51.412c-21.722-10.345-47.845-1.111-58.277,20.61
		c-10.432,21.761-1.198,47.884,20.61,58.235l124.372,59.427C586.65,228.764,509.265,372.806,475.357,436.298
		c-38.607,72.166-48.953,183.422-49.383,188.083C423.795,648.449,441.538,669.656,465.569,671.84L465.569,671.84z M465.569,671.84"
		/>
</g>
</svg>
